<?xml version="1.0" encoding="utf-8"?>
<!-- Generator: Adobe Illustrator 24.1.2, SVG Export Plug-In . SVG Version: 6.00 Build 0)  -->
<svg version="1.1" id="Layer_1" xmlns="http://www.w3.org/2000/svg" xmlns:xlink="http://www.w3.org/1999/xlink" x="0px" y="0px"
	 viewBox="0 0 595.28 419.53" enable-background="new 0 0 595.28 419.53" xml:space="preserve">
<g>
	<polygon points="219.64,209.16 214.39,218.25 217.16,218.25 217.16,220.17 222.12,220.17 222.12,218.25 224.89,218.25 	"/>
	<path d="M182.21,185.37l3.17-10.01l-2.7,0.6l-0.38-1.71c-0.02-0.09-0.11-0.14-0.19-0.12l-4.63,1.02l0.35,1.89l-2.7,0.6
		L182.21,185.37z"/>
	<g>
		<path d="M217.16,220.05l0.05,1.5c-8.93,57.1-76.02,84.4-122.24,49.68c-16.21-12.17-26.2-28.31-29.67-48.34
			c-0.22-1.22-1.34-2.83,0.75-3.74c3.41-1.48,7.17,0.36,7.93,3.93c9.5,44.49,56.72,67.76,97.5,47.64
			c21.33-10.52,33.43-28.29,37.52-51.64c0.67-3.84-0.44-5.11-4.43-4.92c-6.78,0.31-13.58,0.07-20.37,0.09
			c-5.07,0.01-6.09,1.39-4.08,6.07c1.55,3.6,2.9,7.17,2.98,11.14c0.3,15.11-9.52,25.62-26.25,27.36
			c-17.57,1.83-35.22,0.45-52.84,0.75c-3.26,0.06-5.04-1.62-4.93-5.14c0.13-3.87-0.05-7.76,0.05-11.63
			c0.11-4.23-0.78-8.5,2.51-12.36c1.9-2.23,0.25-5-2.01-6.68c-2.03-1.5-4.25-1.43-6.26,0.17c-2.28,1.81-3.49,4.37-1.7,6.79
			c4.71,6.35,1.54,13.23,2.59,20.22c-1.14-0.42-1.71-0.46-1.97-0.76c-7.11-8.26-11.67-17.75-13.65-28.47
			c-0.53-2.87,1.35-2.67,3.22-2.67c21.34,0.02,42.69-0.07,64.04,0.08c5.41,0.04,10.62,1.41,14.57,5.54
			c4.97,5.17,3.71,11.79-2.83,14.55c-3.29,1.39-6.8,1.99-10.42,1.97c-6.95-0.05-13.91,0.06-20.86-0.03c-8.84-0.12-7.6,1.59-7.9-8.04
			c-0.11-3.55,1.28-4.4,4.52-4.24c4.68,0.22,9.38,0.03,14.07,0.06c1.79,0.02,3.13-0.15,3.11-2.53c-0.03-2.37-1.37-2.51-3.16-2.5
			c-6.63,0.04-13.26,0.15-19.89-0.05c-3.32-0.1-3.79,1.34-3.41,5.04c0.43,4.21,0.32,8.45-0.1,12.66c-0.39,3.91,1.17,4.46,4.23,4.42
			c10.19-0.13,20.38-0.04,30.57-0.07c4.26-0.01,8.37-0.85,12.18-2.79c8.64-4.42,10.39-14.5,3.67-21.52
			c-4.98-5.21-11.4-7.25-18.41-7.3c-14.39-0.12-28.79-0.06-43.18-0.03c-2.08,0-3.64,0.11-3.61-2.89
			c0.14-15.67,0.07-31.34,0.06-47.02c0-3.27,1.75-4.64,4.87-4.64c16.01,0.03,32.04-0.49,48.02,0.27
			c10.85,0.51,20.6,4.55,25.61,15.44l4.68-1.22c-2.96-6.95-7.72-11.97-14.65-15.19c-8.8-4.08-18.15-4.19-27.56-4.1
			c-9.62,0.08-19.23,0.01-29.11,0.01c0.83-2.34,2.57-2.59,3.96-3.19c14.8-6.39,29.93-7.81,45.37-2.56
			c21.41,7.28,35.5,21.72,42.02,43.42c0.61,2.03,1.65,4.24-2.11,4.22c-11.64-0.05-23.29-0.03-34.93-0.01
			c-1.97,0-2.43-0.54-1.77-2.62c3.48-10.95-1.72-19.77-12.85-21.02c-11.42-1.28-22.94-0.3-34.42-0.5c-1.83-0.03-2.63,0.72-2.59,2.59
			c0.04,1.81,0.77,2.68,2.63,2.58c1.13-0.06,2.26,0,3.39,0c9.7,0.06,19.41-0.11,29.1,0.25c6.78,0.25,11.49,4.78,11.54,10.18
			c0.04,4.93-4.03,7.98-11.35,8.5c-0.19,0.02-0.5,0.03-0.69,0.03c-8.73,0-17.47-0.16-26.19,0.08c-4.37,0.12-3.38-2.68-3.58-5.14
			c-0.23-2.86,0.31-4.52,3.83-4.31c4.83,0.28,9.7,0.05,14.55,0.07c1.74,0.01,3.25-0.11,3.31-2.44c0.05-2.51-1.67-2.33-3.3-2.34
			c-6.64,0-13.27,0.14-19.89-0.06c-3-0.09-3.5,1.22-3.4,3.75c0.15,3.87,0.24,7.77-0.01,11.63c-0.22,3.36,1.25,3.96,4.24,3.94
			c33.48-0.19,66.95-0.31,100.43-0.34c3.4,0,4.55-0.82,3.93-4.47c-7.69-44.98-48.49-74.94-93.43-68.45
			c-33.04,4.77-60.53,30.31-67.76,63.08c-0.86,3.9,0.25,7.86-2.86,11.09c-2.03,2.1-2.16,4.9,0.04,6.76c2.1,1.76,4.57,1.73,6.7,0.11
			c2.08-1.58,2.86-3.83,1.2-6.08c-2.99-4.04-0.98-8.3-0.01-12.26c8.48-34.57,39.49-58.91,74.93-58.92
			c35.5-0.01,66.24,24.16,74.87,58.95c0.38,1.55,1.97,3.65-0.03,4.85c-1.94,1.16-4.53,0.94-6.59,0.14
			c-2.02-0.79-1.75-3.28-2.27-5.08c-10.27-35.53-45.92-56.89-81.64-48.04c-28.04,6.95-44.9,25.39-51.56,53.39
			c-0.97,4.1,0.29,5.28,4.21,4.92c2.56-0.24,5.17-0.08,7.76-0.04c9.57,0.15,8.18-1.45,8.52,8.52c0.12,3.54-1.15,4.29-4.41,4.21
			c-8.57-0.21-17.15,0.12-25.71-0.15c-3.83-0.13-5.02,0.83-4.56,4.81c4.47,38.33,35.53,68.73,74.15,72.38
			c42.86,4.05,82.18-27.26,88.35-70.09c0.03-0.2,0.04-0.4,0.04-0.6l-0.01-1.17L217.16,220.05z M94.22,193.64
			c0,1.31,0.01,2.94-1.67,3.01c-4.03,0.17-8.07,0.11-12.11-0.01c-1.22-0.04-1.46-1.12-1.18-2.17c2.57-9.78,6.84-18.63,13.82-25.98
			l1.14,0.54V193.64z"/>
		<path fill="#FFFFFF" d="M203.34,222.87c-1.95,8.81-5.54,16.88-10.82,24.16c-17.04,23.49-49,32.4-75.8,21.14
			c-1.69-0.71-3.72-1.09-5.23-3.8c11.3,0,21.96,0.08,32.62-0.03c8.74-0.09,17.44-0.53,25.68-4.04
			c14.26-6.07,21.72-21.67,16.82-36.39c-1.5-4.51-0.32-5.26,3.79-4.92c3.21,0.27,6.47,0.25,9.69,0
			C203.29,218.74,204.01,219.88,203.34,222.87z"/>
	</g>
	<g>
		<path d="M262.6,198.25c2.83,0,4.98,0.39,6.45,1.16c1.46,0.77,2.2,1.95,2.2,3.53v4.78c0,0.9-0.16,1.56-0.48,1.98
			c-0.32,0.42-0.84,0.89-1.54,1.4c0.68,0.55,1.18,1.06,1.52,1.54c0.34,0.48,0.51,1.16,0.51,2.03v4.88c0,1.58-0.73,2.75-2.2,3.52
			c-1.47,0.77-3.61,1.16-6.45,1.16h-22.65v-18.88h11.35v3.38h8.6v-5.75h-19.94v-4.73H262.6z M251.3,213.46v6.04h8.6v-6.04H251.3z"/>
		<path d="M275.2,224.23v-21.34h11.35v21.34H275.2z"/>
		<path d="M311.42,224.23h-12.27c-2.83,0-4.98-0.39-6.45-1.16c-1.47-0.77-2.2-1.95-2.2-3.52V198.2h11.35v4.68h11.45v4.73h-11.45
			v11.88h9.56V224.23z"/>
		<path d="M364.2,198.25v25.98h-11.35v-11.78h-8.6v11.78h-11.35v-25.98h11.35v9.42h8.6v-9.42H364.2z"/>
		<path d="M368.16,207.57c0-1.58,0.73-2.75,2.2-3.52c1.46-0.77,3.61-1.16,6.45-1.16h14c2.83,0,4.98,0.39,6.45,1.16
			c1.46,0.77,2.2,1.95,2.2,3.52v11.98c0,1.58-0.73,2.75-2.2,3.52c-1.46,0.77-3.61,1.16-6.45,1.16h-14c-2.83,0-4.98-0.39-6.45-1.16
			c-1.46-0.77-2.2-1.95-2.2-3.52V207.57z M388.1,207.61h-8.6v11.88h8.6V207.61z"/>
		<path d="M405.61,204.04c1.46-0.77,3.61-1.16,6.45-1.16h12.22v4.73h-9.51v16.61h-11.35v-16.66
			C403.41,205.99,404.14,204.81,405.61,204.04z"/>
		<path d="M428.23,224.23v-21.34h11.35v21.34H428.23z"/>
		<path d="M472.85,212.39c0,0.42-1.45,1.04-4.35,1.86c-2.9,0.82-7.45,1.65-13.67,2.49v2.75h17.96v4.73h-29.31v-9.56
			c0-0.22,0.27-0.48,0.82-0.77c0.55-0.29,1.5-0.63,2.87-1.01c1.37-0.39,3.2-0.81,5.5-1.28c2.3-0.47,5.22-0.99,8.76-1.57v-2.41
			h-17.96v-4.68h29.36V212.39z"/>
		<path d="M476.81,207.57c0-1.58,0.73-2.75,2.2-3.52c1.46-0.77,3.61-1.16,6.45-1.16h14c2.83,0,4.98,0.39,6.45,1.16
			c1.46,0.77,2.2,1.95,2.2,3.52v11.98c0,1.58-0.73,2.75-2.2,3.52c-1.46,0.77-3.61,1.16-6.45,1.16h-14c-2.83,0-4.98-0.39-6.45-1.16
			c-1.46-0.77-2.2-1.95-2.2-3.52V207.57z M496.76,207.61h-8.6v11.88h8.6V207.61z"/>
		<path d="M545.63,221.35c-0.45,0.56-1.02,1.06-1.71,1.5c-0.69,0.43-1.43,0.77-2.22,1.01c-0.79,0.24-1.52,0.36-2.2,0.36h-1.4
			c-0.42-0.16-1.09-0.53-2.03-1.11c-0.93-0.58-2.05-1.33-3.36-2.25c-1.3-0.92-2.75-1.97-4.35-3.16c-1.59-1.19-3.24-2.48-4.95-3.86
			v10.38h-11.35v-16.66c0-0.77,0.22-1.46,0.65-2.05c0.43-0.6,0.99-1.09,1.67-1.47c0.68-0.39,1.42-0.68,2.22-0.87
			c0.8-0.19,1.59-0.29,2.37-0.29h1.26c0.61,0.23,1.42,0.64,2.44,1.23c1.01,0.6,2.16,1.34,3.43,2.25c1.27,0.9,2.66,1.93,4.18,3.09
			c1.51,1.16,3.07,2.41,4.68,3.77v-10.33h11.35v16.66C546.3,220.19,546.08,220.79,545.63,221.35z"/>
	</g>
</g>
</svg>
